<svg width="156" height="122" fill="none" xmlns="http://www.w3.org/2000/svg"><g filter="url(#filter0_ddiiii_202_2586)" fill="#D9D9D9"><path d="M17 10a7 7 0 11-14 0 7 7 0 0114 0zm34 0a7 7 0 11-14 0 7 7 0 0114 0zm34 0a7 7 0 11-14 0 7 7 0 0114 0zm34 0a7 7 0 11-14 0 7 7 0 0114 0zm34 0a7 7 0 11-14 0 7 7 0 0114 0zM17 44a7 7 0 11-14 0 7 7 0 0114 0zm68 0a7 7 0 11-14 0 7 7 0 0114 0zm-34 0a7 7 0 11-14 0 7 7 0 0114 0zm68 0a7 7 0 11-14 0 7 7 0 0114 0zm34 0a7 7 0 11-14 0 7 7 0 0114 0zM85 78a7 7 0 11-14 0 7 7 0 0114 0zm-68 0a7 7 0 11-14 0 7 7 0 0114 0zm34 0a7 7 0 11-14 0 7 7 0 0114 0zm34 34a7 7 0 11-14 0 7 7 0 0114 0zm34-34a7 7 0 11-14 0 7 7 0 0114 0zm34 0a7 7 0 11-14 0 7 7 0 0114 0zM17 112a7 7 0 11-14 0 7 7 0 0114 0zm34 0a7 7 0 11-14 0 7 7 0 0114 0zm68 0a7 7 0 11-14 0 7 7 0 0114 0zm34 0a7 7 0 11-14 0 7 7 0 0114 0z"/></g><defs><filter id="filter0_ddiiii_202_2586" x="-2" y="-2" width="160" height="126" filterUnits="userSpaceOnUse" color-interpolation-filters="sRGB"><feFlood flood-opacity="0" result="BackgroundImageFix"/><feColorMatrix in="SourceAlpha" values="0 0 0 0 0 0 0 0 0 0 0 0 0 0 0 0 0 0 127 0" result="hardAlpha"/><feOffset dx="-1" dy="-1"/><feGaussianBlur stdDeviation="1"/><feColorMatrix values="0 0 0 0 0.682353 0 0 0 0 0.682353 0 0 0 0 0.682353 0 0 0 0.5 0"/><feBlend in2="BackgroundImageFix" result="effect1_dropShadow_202_2586"/><feColorMatrix in="SourceAlpha" values="0 0 0 0 0 0 0 0 0 0 0 0 0 0 0 0 0 0 127 0" result="hardAlpha"/><feOffset dx="1" dy="1"/><feGaussianBlur stdDeviation="1"/><feColorMatrix values="0 0 0 0 1 0 0 0 0 1 0 0 0 0 1 0 0 0 0.3 0"/><feBlend in2="effect1_dropShadow_202_2586" result="effect2_dropShadow_202_2586"/><feBlend in="SourceGraphic" in2="effect2_dropShadow_202_2586" result="shape"/><feColorMatrix in="SourceAlpha" values="0 0 0 0 0 0 0 0 0 0 0 0 0 0 0 0 0 0 127 0" result="hardAlpha"/><feOffset dx="5" dy="5"/><feGaussianBlur stdDeviation="6.5"/><feComposite in2="hardAlpha" operator="arithmetic" k2="-1" k3="1"/><feColorMatrix values="0 0 0 0 0.682353 0 0 0 0 0.682353 0 0 0 0 0.682353 0 0 0 0.9 0"/><feBlend in2="shape" result="effect3_innerShadow_202_2586"/><feColorMatrix in="SourceAlpha" values="0 0 0 0 0 0 0 0 0 0 0 0 0 0 0 0 0 0 127 0" result="hardAlpha"/><feOffset dx="-5" dy="-5"/><feGaussianBlur stdDeviation="5"/><feComposite in2="hardAlpha" operator="arithmetic" k2="-1" k3="1"/><feColorMatrix values="0 0 0 0 1 0 0 0 0 1 0 0 0 0 1 0 0 0 0.9 0"/><feBlend in2="effect3_innerShadow_202_2586" result="effect4_innerShadow_202_2586"/><feColorMatrix in="SourceAlpha" values="0 0 0 0 0 0 0 0 0 0 0 0 0 0 0 0 0 0 127 0" result="hardAlpha"/><feOffset dx="5" dy="-5"/><feGaussianBlur stdDeviation="5"/><feComposite in2="hardAlpha" operator="arithmetic" k2="-1" k3="1"/><feColorMatrix values="0 0 0 0 0.682353 0 0 0 0 0.682353 0 0 0 0 0.682353 0 0 0 0.2 0"/><feBlend in2="effect4_innerShadow_202_2586" result="effect5_innerShadow_202_2586"/><feColorMatrix in="SourceAlpha" values="0 0 0 0 0 0 0 0 0 0 0 0 0 0 0 0 0 0 127 0" result="hardAlpha"/><feOffset dx="-5" dy="5"/><feGaussianBlur stdDeviation="5"/><feComposite in2="hardAlpha" operator="arithmetic" k2="-1" k3="1"/><feColorMatrix values="0 0 0 0 0.682353 0 0 0 0 0.682353 0 0 0 0 0.682353 0 0 0 0.2 0"/><feBlend in2="effect5_innerShadow_202_2586" result="effect6_innerShadow_202_2586"/></filter></defs></svg>