<svg width="940" height="940" fill="none" xmlns="http://www.w3.org/2000/svg"><mask id="a" style="mask-type:alpha" maskUnits="userSpaceOnUse" x="0" y="0" width="940" height="940"><ellipse cx="470" cy="469.574" rx="470" ry="469.574" fill="url(#paint0_radial_202_1416)"/></mask><g mask="url(#a)" fill="#D9D9D9"><circle cx="5.966" cy="5.966" r="5.966"/><circle cx="34.941" cy="5.966" r="5.966"/><circle cx="498.55" cy="5.966" r="5.966"/><circle cx="266.745" cy="5.966" r="5.966"/><circle cx="730.353" cy="5.966" r="5.966"/><circle cx="150.843" cy="5.966" r="5.966"/><circle cx="614.452" cy="5.966" r="5.966"/><circle cx="382.647" cy="5.966" r="5.966"/><circle cx="846.256" cy="5.966" r="5.966"/><circle cx="63.917" cy="5.966" r="5.966"/><circle cx="527.525" cy="5.966" r="5.966"/><circle cx="295.72" cy="5.966" r="5.966"/><circle cx="759.329" cy="5.966" r="5.966"/><circle cx="179.819" cy="5.966" r="5.966"/><circle cx="643.427" cy="5.966" r="5.966"/><circle cx="411.623" cy="5.966" r="5.966"/><circle cx="875.231" cy="5.966" r="5.966"/><circle cx="92.892" cy="5.966" r="5.966"/><circle cx="556.501" cy="5.966" r="5.966"/><circle cx="324.696" cy="5.966" r="5.966"/><circle cx="788.304" cy="5.966" r="5.966"/><circle cx="208.794" cy="5.966" r="5.966"/><circle cx="672.403" cy="5.966" r="5.966"/><circle cx="440.598" cy="5.966" r="5.966"/><circle cx="904.207" cy="5.966" r="5.966"/><circle cx="121.868" cy="5.966" r="5.966"/><circle cx="585.476" cy="5.966" r="5.966"/><circle cx="353.672" cy="5.966" r="5.966"/><circle cx="817.28" cy="5.966" r="5.966"/><circle cx="237.77" cy="5.966" r="5.966"/><circle cx="701.378" cy="5.966" r="5.966"/><circle cx="469.574" cy="5.966" r="5.966"/><circle cx="933.182" cy="5.966" r="5.966"/><circle cx="5.966" cy="34.941" r="5.966"/><circle cx="5.966" cy="498.549" r="5.966"/><circle cx="5.966" cy="266.745" r="5.966"/><circle cx="5.966" cy="730.354" r="5.966"/><circle cx="5.966" cy="150.843" r="5.966"/><circle cx="5.966" cy="614.452" r="5.966"/><circle cx="5.966" cy="382.647" r="5.966"/><circle cx="5.966" cy="846.256" r="5.966"/><circle cx="63.917" cy="34.941" r="5.966"/><circle cx="63.917" cy="498.549" r="5.966"/><circle cx="527.525" cy="34.941" r="5.966"/><circle cx="527.525" cy="498.549" r="5.966"/><circle cx="63.917" cy="266.745" r="5.966"/><circle cx="63.917" cy="730.354" r="5.966"/><circle cx="527.525" cy="266.745" r="5.966"/><circle cx="527.525" cy="730.354" r="5.966"/><circle cx="295.72" cy="34.941" r="5.966"/><circle cx="295.72" cy="498.549" r="5.966"/><circle cx="759.329" cy="34.941" r="5.966"/><circle cx="759.329" cy="498.549" r="5.966"/><circle cx="295.72" cy="266.745" r="5.966"/><circle cx="295.72" cy="730.354" r="5.966"/><circle cx="759.329" cy="266.745" r="5.966"/><circle cx="759.329" cy="730.354" r="5.966"/><circle cx="63.917" cy="150.843" r="5.966"/><circle cx="63.917" cy="614.452" r="5.966"/><circle cx="527.525" cy="150.843" r="5.966"/><circle cx="527.525" cy="614.452" r="5.966"/><circle cx="63.917" cy="382.647" r="5.966"/><circle cx="63.917" cy="846.256" r="5.966"/><circle cx="527.525" cy="382.647" r="5.966"/><circle cx="527.525" cy="846.256" r="5.966"/><circle cx="295.72" cy="150.843" r="5.966"/><circle cx="295.72" cy="614.452" r="5.966"/><circle cx="759.329" cy="150.843" r="5.966"/><circle cx="759.329" cy="614.452" r="5.966"/><circle cx="295.72" cy="382.647" r="5.966"/><circle cx="295.72" cy="846.256" r="5.966"/><circle cx="759.329" cy="382.647" r="5.966"/><circle cx="759.329" cy="846.256" r="5.966"/><circle cx="179.819" cy="34.941" r="5.966"/><circle cx="179.819" cy="498.549" r="5.966"/><circle cx="643.427" cy="34.941" r="5.966"/><circle cx="643.427" cy="498.549" r="5.966"/><circle cx="179.819" cy="266.745" r="5.966"/><circle cx="179.819" cy="730.354" r="5.966"/><circle cx="643.427" cy="266.745" r="5.966"/><circle cx="643.427" cy="730.354" r="5.966"/><circle cx="411.623" cy="34.941" r="5.966"/><circle cx="411.623" cy="498.549" r="5.966"/><circle cx="875.231" cy="34.941" r="5.966"/><circle cx="875.231" cy="498.549" r="5.966"/><circle cx="411.623" cy="266.745" r="5.966"/><circle cx="411.623" cy="730.354" r="5.966"/><circle cx="875.231" cy="266.745" r="5.966"/><circle cx="875.231" cy="730.354" r="5.966"/><circle cx="179.819" cy="150.843" r="5.966"/><circle cx="179.819" cy="614.452" r="5.966"/><circle cx="643.427" cy="150.843" r="5.966"/><circle cx="643.427" cy="614.452" r="5.966"/><circle cx="179.819" cy="382.647" r="5.966"/><circle cx="179.819" cy="846.256" r="5.966"/><circle cx="643.427" cy="382.647" r="5.966"/><circle cx="643.427" cy="846.256" r="5.966"/><circle cx="411.623" cy="150.843" r="5.966"/><circle cx="411.623" cy="614.452" r="5.966"/><circle cx="875.231" cy="150.843" r="5.966"/><circle cx="875.231" cy="614.452" r="5.966"/><circle cx="411.623" cy="382.647" r="5.966"/><circle cx="411.623" cy="846.256" r="5.966"/><circle cx="875.231" cy="382.647" r="5.966"/><circle cx="875.231" cy="846.256" r="5.966"/><circle cx="34.941" cy="34.941" r="5.966"/><circle cx="34.941" cy="498.549" r="5.966"/><circle cx="498.55" cy="34.941" r="5.966"/><circle cx="498.55" cy="498.549" r="5.966"/><circle cx="34.941" cy="266.745" r="5.966"/><circle cx="34.941" cy="730.354" r="5.966"/><circle cx="498.55" cy="266.745" r="5.966"/><circle cx="498.55" cy="730.354" r="5.966"/><circle cx="266.745" cy="34.941" r="5.966"/><circle cx="266.745" cy="498.549" r="5.966"/><circle cx="730.353" cy="34.941" r="5.966"/><circle cx="730.353" cy="498.549" r="5.966"/><circle cx="266.745" cy="266.745" r="5.966"/><circle cx="266.745" cy="730.354" r="5.966"/><circle cx="730.353" cy="266.745" r="5.966"/><circle cx="730.353" cy="730.354" r="5.966"/><circle cx="34.941" cy="150.843" r="5.966"/><circle cx="34.941" cy="614.452" r="5.966"/><circle cx="498.55" cy="150.843" r="5.966"/><circle cx="498.55" cy="614.452" r="5.966"/><circle cx="34.941" cy="382.647" r="5.966"/><circle cx="34.941" cy="846.256" r="5.966"/><circle cx="498.55" cy="382.647" r="5.966"/><circle cx="498.55" cy="846.256" r="5.966"/><circle cx="266.745" cy="150.843" r="5.966"/><circle cx="266.745" cy="614.452" r="5.966"/><circle cx="730.353" cy="150.843" r="5.966"/><circle cx="730.353" cy="614.452" r="5.966"/><circle cx="266.745" cy="382.647" r="5.966"/><circle cx="266.745" cy="846.256" r="5.966"/><circle cx="730.353" cy="382.647" r="5.966"/><circle cx="730.353" cy="846.256" r="5.966"/><circle cx="150.843" cy="34.941" r="5.966"/><circle cx="150.843" cy="498.549" r="5.966"/><circle cx="614.452" cy="34.941" r="5.966"/><circle cx="614.452" cy="498.549" r="5.966"/><circle cx="150.843" cy="266.745" r="5.966"/><circle cx="150.843" cy="730.354" r="5.966"/><circle cx="614.452" cy="266.745" r="5.966"/><circle cx="614.452" cy="730.354" r="5.966"/><circle cx="382.647" cy="34.941" r="5.966"/><circle cx="382.647" cy="498.549" r="5.966"/><circle cx="846.256" cy="34.941" r="5.966"/><circle cx="846.256" cy="498.549" r="5.966"/><circle cx="382.647" cy="266.745" r="5.966"/><circle cx="382.647" cy="730.354" r="5.966"/><circle cx="846.256" cy="266.745" r="5.966"/><circle cx="846.256" cy="730.354" r="5.966"/><circle cx="150.843" cy="150.843" r="5.966"/><circle cx="150.843" cy="614.452" r="5.966"/><circle cx="614.452" cy="150.843" r="5.966"/><circle cx="614.452" cy="614.452" r="5.966"/><circle cx="150.843" cy="382.647" r="5.966"/><circle cx="150.843" cy="846.256" r="5.966"/><circle cx="614.452" cy="382.647" r="5.966"/><circle cx="614.452" cy="846.256" r="5.966"/><circle cx="382.647" cy="150.843" r="5.966"/><circle cx="382.647" cy="614.452" r="5.966"/><circle cx="846.256" cy="150.843" r="5.966"/><circle cx="846.256" cy="614.452" r="5.966"/><circle cx="382.647" cy="382.647" r="5.966"/><circle cx="382.647" cy="846.256" r="5.966"/><circle cx="846.256" cy="382.647" r="5.966"/><circle cx="846.256" cy="846.256" r="5.966"/><circle cx="92.892" cy="34.941" r="5.966"/><circle cx="92.892" cy="498.549" r="5.966"/><circle cx="556.501" cy="34.941" r="5.966"/><circle cx="556.501" cy="498.549" r="5.966"/><circle cx="92.892" cy="266.745" r="5.966"/><circle cx="92.892" cy="730.354" r="5.966"/><circle cx="556.501" cy="266.745" r="5.966"/><circle cx="556.501" cy="730.354" r="5.966"/><circle cx="324.696" cy="34.941" r="5.966"/><circle cx="324.696" cy="498.549" r="5.966"/><circle cx="788.304" cy="34.941" r="5.966"/><circle cx="788.304" cy="498.549" r="5.966"/><circle cx="324.696" cy="266.745" r="5.966"/><circle cx="324.696" cy="730.354" r="5.966"/><circle cx="788.304" cy="266.745" r="5.966"/><circle cx="788.304" cy="730.354" r="5.966"/><circle cx="92.892" cy="150.843" r="5.966"/><circle cx="92.892" cy="614.452" r="5.966"/><circle cx="556.501" cy="150.843" r="5.966"/><circle cx="556.501" cy="614.452" r="5.966"/><circle cx="92.892" cy="382.647" r="5.966"/><circle cx="92.892" cy="846.256" r="5.966"/><circle cx="556.501" cy="382.647" r="5.966"/><circle cx="556.501" cy="846.256" r="5.966"/><circle cx="324.696" cy="150.843" r="5.966"/><circle cx="324.696" cy="614.452" r="5.966"/><circle cx="788.304" cy="150.843" r="5.966"/><circle cx="788.304" cy="614.452" r="5.966"/><circle cx="324.696" cy="382.647" r="5.966"/><circle cx="324.696" cy="846.256" r="5.966"/><circle cx="788.304" cy="382.647" r="5.966"/><circle cx="788.304" cy="846.256" r="5.966"/><circle cx="208.794" cy="34.941" r="5.966"/><circle cx="208.794" cy="498.549" r="5.966"/><circle cx="672.403" cy="34.941" r="5.966"/><circle cx="672.403" cy="498.549" r="5.966"/><circle cx="208.794" cy="266.745" r="5.966"/><circle cx="208.794" cy="730.354" r="5.966"/><circle cx="672.403" cy="266.745" r="5.966"/><circle cx="672.403" cy="730.354" r="5.966"/><circle cx="440.598" cy="34.941" r="5.966"/><circle cx="440.598" cy="498.549" r="5.966"/><circle cx="904.207" cy="34.941" r="5.966"/><circle cx="904.207" cy="498.549" r="5.966"/><circle cx="440.598" cy="266.745" r="5.966"/><circle cx="440.598" cy="730.354" r="5.966"/><circle cx="904.207" cy="266.745" r="5.966"/><circle cx="904.207" cy="730.354" r="5.966"/><circle cx="208.794" cy="150.843" r="5.966"/><circle cx="208.794" cy="614.452" r="5.966"/><circle cx="672.403" cy="150.843" r="5.966"/><circle cx="672.403" cy="614.452" r="5.966"/><circle cx="208.794" cy="382.647" r="5.966"/><circle cx="208.794" cy="846.256" r="5.966"/><circle cx="672.403" cy="382.647" r="5.966"/><circle cx="672.403" cy="846.256" r="5.966"/><circle cx="440.598" cy="150.843" r="5.966"/><circle cx="440.598" cy="614.452" r="5.966"/><circle cx="904.207" cy="150.843" r="5.966"/><circle cx="904.207" cy="614.452" r="5.966"/><circle cx="440.598" cy="382.647" r="5.966"/><circle cx="440.598" cy="846.256" r="5.966"/><circle cx="904.207" cy="382.647" r="5.966"/><circle cx="904.207" cy="846.256" r="5.966"/><circle cx="121.868" cy="34.941" r="5.966"/><circle cx="121.868" cy="498.549" r="5.966"/><circle cx="585.476" cy="34.941" r="5.966"/><circle cx="585.476" cy="498.549" r="5.966"/><circle cx="121.868" cy="266.745" r="5.966"/><circle cx="121.868" cy="730.354" r="5.966"/><circle cx="585.476" cy="266.745" r="5.966"/><circle cx="585.476" cy="730.354" r="5.966"/><circle cx="353.672" cy="34.941" r="5.966"/><circle cx="353.672" cy="498.549" r="5.966"/><circle cx="817.28" cy="34.941" r="5.966"/><circle cx="817.28" cy="498.549" r="5.966"/><circle cx="353.672" cy="266.745" r="5.966"/><circle cx="353.672" cy="730.354" r="5.966"/><circle cx="817.28" cy="266.745" r="5.966"/><circle cx="817.28" cy="730.354" r="5.966"/><circle cx="121.868" cy="150.843" r="5.966"/><circle cx="121.868" cy="614.452" r="5.966"/><circle cx="585.476" cy="150.843" r="5.966"/><circle cx="585.476" cy="614.452" r="5.966"/><circle cx="121.868" cy="382.647" r="5.966"/><circle cx="121.868" cy="846.256" r="5.966"/><circle cx="585.476" cy="382.647" r="5.966"/><circle cx="585.476" cy="846.256" r="5.966"/><circle cx="353.672" cy="150.843" r="5.966"/><circle cx="353.672" cy="614.452" r="5.966"/><circle cx="817.28" cy="150.843" r="5.966"/><circle cx="817.28" cy="614.452" r="5.966"/><circle cx="353.672" cy="382.647" r="5.966"/><circle cx="353.672" cy="846.256" r="5.966"/><circle cx="817.28" cy="382.647" r="5.966"/><circle cx="817.28" cy="846.256" r="5.966"/><circle cx="237.77" cy="34.941" r="5.966"/><circle cx="237.77" cy="498.549" r="5.966"/><circle cx="701.378" cy="34.941" r="5.966"/><circle cx="701.378" cy="498.549" r="5.966"/><circle cx="237.77" cy="266.745" r="5.966"/><circle cx="237.77" cy="730.354" r="5.966"/><circle cx="701.378" cy="266.745" r="5.966"/><circle cx="701.378" cy="730.354" r="5.966"/><circle cx="469.574" cy="34.941" r="5.966"/><circle cx="469.574" cy="498.549" r="5.966"/><circle cx="933.182" cy="34.941" r="5.966"/><circle cx="933.182" cy="498.549" r="5.966"/><circle cx="469.574" cy="266.745" r="5.966"/><circle cx="469.574" cy="730.354" r="5.966"/><circle cx="933.182" cy="266.745" r="5.966"/><circle cx="933.182" cy="730.354" r="5.966"/><circle cx="237.77" cy="150.843" r="5.966"/><circle cx="237.77" cy="614.452" r="5.966"/><circle cx="701.378" cy="150.843" r="5.966"/><circle cx="701.378" cy="614.452" r="5.966"/><circle cx="237.77" cy="382.647" r="5.966"/><circle cx="237.77" cy="846.256" r="5.966"/><circle cx="701.378" cy="382.647" r="5.966"/><circle cx="701.378" cy="846.256" r="5.966"/><circle cx="469.574" cy="150.843" r="5.966"/><circle cx="469.574" cy="614.452" r="5.966"/><circle cx="933.182" cy="150.843" r="5.966"/><circle cx="933.182" cy="614.452" r="5.966"/><circle cx="469.574" cy="382.647" r="5.966"/><circle cx="469.574" cy="846.256" r="5.966"/><circle cx="933.182" cy="382.647" r="5.966"/><circle cx="933.182" cy="846.256" r="5.966"/><circle cx="63.917" cy="63.917" r="5.966"/><circle cx="63.917" cy="527.525" r="5.966"/><circle cx="527.525" cy="63.917" r="5.966"/><circle cx="527.525" cy="527.525" r="5.966"/><circle cx="63.917" cy="295.721" r="5.966"/><circle cx="63.917" cy="759.329" r="5.966"/><circle cx="527.525" cy="295.721" r="5.966"/><circle cx="527.525" cy="759.329" r="5.966"/><circle cx="295.72" cy="63.917" r="5.966"/><circle cx="295.72" cy="527.525" r="5.966"/><circle cx="759.329" cy="63.917" r="5.966"/><circle cx="759.329" cy="527.525" r="5.966"/><circle cx="295.72" cy="295.721" r="5.966"/><circle cx="295.72" cy="759.329" r="5.966"/><circle cx="759.329" cy="295.721" r="5.966"/><circle cx="759.329" cy="759.329" r="5.966"/><circle cx="63.917" cy="179.819" r="5.966"/><circle cx="63.917" cy="643.427" r="5.966"/><circle cx="527.525" cy="179.819" r="5.966"/><circle cx="527.525" cy="643.427" r="5.966"/><circle cx="63.917" cy="411.623" r="5.966"/><circle cx="63.917" cy="875.231" r="5.966"/><circle cx="527.525" cy="411.623" r="5.966"/><circle cx="527.525" cy="875.231" r="5.966"/><circle cx="295.72" cy="179.819" r="5.966"/><circle cx="295.72" cy="643.427" r="5.966"/><circle cx="759.329" cy="179.819" r="5.966"/><circle cx="759.329" cy="643.427" r="5.966"/><circle cx="295.72" cy="411.623" r="5.966"/><circle cx="295.72" cy="875.231" r="5.966"/><circle cx="759.329" cy="411.623" r="5.966"/><circle cx="759.329" cy="875.231" r="5.966"/><circle cx="179.819" cy="63.917" r="5.966"/><circle cx="179.819" cy="527.525" r="5.966"/><circle cx="643.427" cy="63.917" r="5.966"/><circle cx="643.427" cy="527.525" r="5.966"/><circle cx="179.819" cy="295.721" r="5.966"/><circle cx="179.819" cy="759.329" r="5.966"/><circle cx="643.427" cy="295.721" r="5.966"/><circle cx="643.427" cy="759.329" r="5.966"/><circle cx="411.623" cy="63.917" r="5.966"/><circle cx="411.623" cy="527.525" r="5.966"/><circle cx="875.231" cy="63.917" r="5.966"/><circle cx="875.231" cy="527.525" r="5.966"/><circle cx="411.623" cy="295.721" r="5.966"/><circle cx="411.623" cy="759.329" r="5.966"/><circle cx="875.231" cy="295.721" r="5.966"/><circle cx="875.231" cy="759.329" r="5.966"/><circle cx="179.819" cy="179.819" r="5.966"/><circle cx="179.819" cy="643.427" r="5.966"/><circle cx="643.427" cy="179.819" r="5.966"/><circle cx="643.427" cy="643.427" r="5.966"/><circle cx="179.819" cy="411.623" r="5.966"/><circle cx="179.819" cy="875.231" r="5.966"/><circle cx="643.427" cy="411.623" r="5.966"/><circle cx="643.427" cy="875.231" r="5.966"/><circle cx="411.623" cy="179.819" r="5.966"/><circle cx="411.623" cy="643.427" r="5.966"/><circle cx="875.231" cy="179.819" r="5.966"/><circle cx="875.231" cy="643.427" r="5.966"/><circle cx="411.623" cy="411.623" r="5.966"/><circle cx="411.623" cy="875.231" r="5.966"/><circle cx="875.231" cy="411.623" r="5.966"/><circle cx="875.231" cy="875.231" r="5.966"/><circle cx="5.966" cy="63.917" r="5.966"/><circle cx="5.966" cy="527.525" r="5.966"/><circle cx="5.966" cy="295.721" r="5.966"/><circle cx="5.966" cy="759.329" r="5.966"/><circle cx="5.966" cy="179.819" r="5.966"/><circle cx="5.966" cy="643.427" r="5.966"/><circle cx="5.966" cy="411.623" r="5.966"/><circle cx="5.966" cy="875.231" r="5.966"/><circle cx="34.941" cy="63.917" r="5.966"/><circle cx="34.941" cy="527.525" r="5.966"/><circle cx="498.55" cy="63.917" r="5.966"/><circle cx="498.55" cy="527.525" r="5.966"/><circle cx="34.941" cy="295.721" r="5.966"/><circle cx="34.941" cy="759.329" r="5.966"/><circle cx="498.55" cy="295.721" r="5.966"/><circle cx="498.55" cy="759.329" r="5.966"/><circle cx="266.745" cy="63.917" r="5.966"/><circle cx="266.745" cy="527.525" r="5.966"/><circle cx="730.353" cy="63.917" r="5.966"/><circle cx="730.353" cy="527.525" r="5.966"/><circle cx="266.745" cy="295.721" r="5.966"/><circle cx="266.745" cy="759.329" r="5.966"/><circle cx="730.353" cy="295.721" r="5.966"/><circle cx="730.353" cy="759.329" r="5.966"/><circle cx="34.941" cy="179.819" r="5.966"/><circle cx="34.941" cy="643.427" r="5.966"/><circle cx="498.55" cy="179.819" r="5.966"/><circle cx="498.55" cy="643.427" r="5.966"/><circle cx="34.941" cy="411.623" r="5.966"/><circle cx="34.941" cy="875.231" r="5.966"/><circle cx="498.55" cy="411.623" r="5.966"/><circle cx="498.55" cy="875.231" r="5.966"/><circle cx="266.745" cy="179.819" r="5.966"/><circle cx="266.745" cy="643.427" r="5.966"/><circle cx="730.353" cy="179.819" r="5.966"/><circle cx="730.353" cy="643.427" r="5.966"/><circle cx="266.745" cy="411.623" r="5.966"/><circle cx="266.745" cy="875.231" r="5.966"/><circle cx="730.353" cy="411.623" r="5.966"/><circle cx="730.353" cy="875.231" r="5.966"/><circle cx="150.843" cy="63.917" r="5.966"/><circle cx="150.843" cy="527.525" r="5.966"/><circle cx="614.452" cy="63.917" r="5.966"/><circle cx="614.452" cy="527.525" r="5.966"/><circle cx="150.843" cy="295.721" r="5.966"/><circle cx="150.843" cy="759.329" r="5.966"/><circle cx="614.452" cy="295.721" r="5.966"/><circle cx="614.452" cy="759.329" r="5.966"/><circle cx="382.647" cy="63.917" r="5.966"/><circle cx="382.647" cy="527.525" r="5.966"/><circle cx="846.256" cy="63.917" r="5.966"/><circle cx="846.256" cy="527.525" r="5.966"/><circle cx="382.647" cy="295.721" r="5.966"/><circle cx="382.647" cy="759.329" r="5.966"/><circle cx="846.256" cy="295.721" r="5.966"/><circle cx="846.256" cy="759.329" r="5.966"/><circle cx="150.843" cy="179.819" r="5.966"/><circle cx="150.843" cy="643.427" r="5.966"/><circle cx="614.452" cy="179.819" r="5.966"/><circle cx="614.452" cy="643.427" r="5.966"/><circle cx="150.843" cy="411.623" r="5.966"/><circle cx="150.843" cy="875.231" r="5.966"/><circle cx="614.452" cy="411.623" r="5.966"/><circle cx="614.452" cy="875.231" r="5.966"/><circle cx="382.647" cy="179.819" r="5.966"/><circle cx="382.647" cy="643.427" r="5.966"/><circle cx="846.256" cy="179.819" r="5.966"/><circle cx="846.256" cy="643.427" r="5.966"/><circle cx="382.647" cy="411.623" r="5.966"/><circle cx="382.647" cy="875.231" r="5.966"/><circle cx="846.256" cy="411.623" r="5.966"/><circle cx="846.256" cy="875.231" r="5.966"/><circle cx="63.917" cy="92.892" r="5.966"/><circle cx="63.917" cy="556.5" r="5.966"/><circle cx="527.525" cy="92.892" r="5.966"/><circle cx="527.525" cy="556.5" r="5.966"/><circle cx="63.917" cy="324.696" r="5.966"/><circle cx="63.917" cy="788.305" r="5.966"/><circle cx="527.525" cy="324.696" r="5.966"/><circle cx="527.525" cy="788.305" r="5.966"/><circle cx="295.72" cy="92.892" r="5.966"/><circle cx="295.72" cy="556.5" r="5.966"/><circle cx="759.329" cy="92.892" r="5.966"/><circle cx="759.329" cy="556.5" r="5.966"/><circle cx="295.72" cy="324.696" r="5.966"/><circle cx="295.72" cy="788.305" r="5.966"/><circle cx="759.329" cy="324.696" r="5.966"/><circle cx="759.329" cy="788.305" r="5.966"/><circle cx="63.917" cy="208.794" r="5.966"/><circle cx="63.917" cy="672.402" r="5.966"/><circle cx="527.525" cy="208.794" r="5.966"/><circle cx="527.525" cy="672.402" r="5.966"/><circle cx="63.917" cy="440.598" r="5.966"/><circle cx="63.917" cy="904.207" r="5.966"/><circle cx="527.525" cy="440.598" r="5.966"/><circle cx="527.525" cy="904.207" r="5.966"/><circle cx="295.72" cy="208.794" r="5.966"/><circle cx="295.72" cy="672.402" r="5.966"/><circle cx="759.329" cy="208.794" r="5.966"/><circle cx="759.329" cy="672.402" r="5.966"/><circle cx="295.72" cy="440.598" r="5.966"/><circle cx="295.72" cy="904.207" r="5.966"/><circle cx="759.329" cy="440.598" r="5.966"/><circle cx="759.329" cy="904.207" r="5.966"/><circle cx="179.819" cy="92.892" r="5.966"/><circle cx="179.819" cy="556.5" r="5.966"/><circle cx="643.427" cy="92.892" r="5.966"/><circle cx="643.427" cy="556.5" r="5.966"/><circle cx="179.819" cy="324.696" r="5.966"/><circle cx="179.819" cy="788.305" r="5.966"/><circle cx="643.427" cy="324.696" r="5.966"/><circle cx="643.427" cy="788.305" r="5.966"/><circle cx="411.623" cy="92.892" r="5.966"/><circle cx="411.623" cy="556.5" r="5.966"/><circle cx="875.231" cy="92.892" r="5.966"/><circle cx="875.231" cy="556.5" r="5.966"/><circle cx="411.623" cy="324.696" r="5.966"/><circle cx="411.623" cy="788.305" r="5.966"/><circle cx="875.231" cy="324.696" r="5.966"/><circle cx="875.231" cy="788.305" r="5.966"/><circle cx="179.819" cy="208.794" r="5.966"/><circle cx="179.819" cy="672.402" r="5.966"/><circle cx="643.427" cy="208.794" r="5.966"/><circle cx="643.427" cy="672.402" r="5.966"/><circle cx="179.819" cy="440.598" r="5.966"/><circle cx="179.819" cy="904.207" r="5.966"/><circle cx="643.427" cy="440.598" r="5.966"/><circle cx="643.427" cy="904.207" r="5.966"/><circle cx="411.623" cy="208.794" r="5.966"/><circle cx="411.623" cy="672.402" r="5.966"/><circle cx="875.231" cy="208.794" r="5.966"/><circle cx="875.231" cy="672.402" r="5.966"/><circle cx="411.623" cy="440.598" r="5.966"/><circle cx="411.623" cy="904.207" r="5.966"/><circle cx="875.231" cy="440.598" r="5.966"/><circle cx="875.231" cy="904.207" r="5.966"/><circle cx="63.917" cy="121.868" r="5.966"/><circle cx="63.917" cy="585.476" r="5.966"/><circle cx="527.525" cy="121.868" r="5.966"/><circle cx="527.525" cy="585.476" r="5.966"/><circle cx="63.917" cy="353.672" r="5.966"/><circle cx="63.917" cy="817.28" r="5.966"/><circle cx="527.525" cy="353.672" r="5.966"/><circle cx="527.525" cy="817.28" r="5.966"/><circle cx="295.72" cy="121.868" r="5.966"/><circle cx="295.72" cy="585.476" r="5.966"/><circle cx="759.329" cy="121.868" r="5.966"/><circle cx="759.329" cy="585.476" r="5.966"/><circle cx="295.72" cy="353.672" r="5.966"/><circle cx="295.72" cy="817.28" r="5.966"/><circle cx="759.329" cy="353.672" r="5.966"/><circle cx="759.329" cy="817.28" r="5.966"/><circle cx="63.917" cy="237.77" r="5.966"/><circle cx="63.917" cy="701.378" r="5.966"/><circle cx="527.525" cy="237.77" r="5.966"/><circle cx="527.525" cy="701.378" r="5.966"/><circle cx="63.917" cy="469.574" r="5.966"/><circle cx="63.917" cy="933.182" r="5.966"/><circle cx="527.525" cy="469.574" r="5.966"/><circle cx="527.525" cy="933.182" r="5.966"/><circle cx="295.72" cy="237.77" r="5.966"/><circle cx="295.72" cy="701.378" r="5.966"/><circle cx="759.329" cy="237.77" r="5.966"/><circle cx="759.329" cy="701.378" r="5.966"/><circle cx="295.72" cy="469.574" r="5.966"/><circle cx="295.72" cy="933.182" r="5.966"/><circle cx="759.329" cy="469.574" r="5.966"/><circle cx="759.329" cy="933.182" r="5.966"/><circle cx="179.819" cy="121.868" r="5.966"/><circle cx="179.819" cy="585.476" r="5.966"/><circle cx="643.427" cy="121.868" r="5.966"/><circle cx="643.427" cy="585.476" r="5.966"/><circle cx="179.819" cy="353.672" r="5.966"/><circle cx="179.819" cy="817.28" r="5.966"/><circle cx="643.427" cy="353.672" r="5.966"/><circle cx="643.427" cy="817.28" r="5.966"/><circle cx="411.623" cy="121.868" r="5.966"/><circle cx="411.623" cy="585.476" r="5.966"/><circle cx="875.231" cy="121.868" r="5.966"/><circle cx="875.231" cy="585.476" r="5.966"/><circle cx="411.623" cy="353.672" r="5.966"/><circle cx="411.623" cy="817.28" r="5.966"/><circle cx="875.231" cy="353.672" r="5.966"/><circle cx="875.231" cy="817.28" r="5.966"/><circle cx="179.819" cy="237.77" r="5.966"/><circle cx="179.819" cy="701.378" r="5.966"/><circle cx="643.427" cy="237.77" r="5.966"/><circle cx="643.427" cy="701.378" r="5.966"/><circle cx="179.819" cy="469.574" r="5.966"/><circle cx="179.819" cy="933.182" r="5.966"/><circle cx="643.427" cy="469.574" r="5.966"/><circle cx="643.427" cy="933.182" r="5.966"/><circle cx="411.623" cy="237.77" r="5.966"/><circle cx="411.623" cy="701.378" r="5.966"/><circle cx="875.231" cy="237.77" r="5.966"/><circle cx="875.231" cy="701.378" r="5.966"/><circle cx="411.623" cy="469.574" r="5.966"/><circle cx="411.623" cy="933.182" r="5.966"/><circle cx="875.231" cy="469.574" r="5.966"/><circle cx="875.231" cy="933.182" r="5.966"/><circle cx="92.892" cy="63.917" r="5.966"/><circle cx="92.892" cy="527.525" r="5.966"/><circle cx="556.501" cy="63.917" r="5.966"/><circle cx="556.501" cy="527.525" r="5.966"/><circle cx="92.892" cy="295.721" r="5.966"/><circle cx="92.892" cy="759.329" r="5.966"/><circle cx="556.501" cy="295.721" r="5.966"/><circle cx="556.501" cy="759.329" r="5.966"/><circle cx="324.696" cy="63.917" r="5.966"/><circle cx="324.696" cy="527.525" r="5.966"/><circle cx="788.304" cy="63.917" r="5.966"/><circle cx="788.304" cy="527.525" r="5.966"/><circle cx="324.696" cy="295.721" r="5.966"/><circle cx="324.696" cy="759.329" r="5.966"/><circle cx="788.304" cy="295.721" r="5.966"/><circle cx="788.304" cy="759.329" r="5.966"/><circle cx="92.892" cy="179.819" r="5.966"/><circle cx="92.892" cy="643.427" r="5.966"/><circle cx="556.501" cy="179.819" r="5.966"/><circle cx="556.501" cy="643.427" r="5.966"/><circle cx="92.892" cy="411.623" r="5.966"/><circle cx="92.892" cy="875.231" r="5.966"/><circle cx="556.501" cy="411.623" r="5.966"/><circle cx="556.501" cy="875.231" r="5.966"/><circle cx="324.696" cy="179.819" r="5.966"/><circle cx="324.696" cy="643.427" r="5.966"/><circle cx="788.304" cy="179.819" r="5.966"/><circle cx="788.304" cy="643.427" r="5.966"/><circle cx="324.696" cy="411.623" r="5.966"/><circle cx="324.696" cy="875.231" r="5.966"/><circle cx="788.304" cy="411.623" r="5.966"/><circle cx="788.304" cy="875.231" r="5.966"/><circle cx="208.794" cy="63.917" r="5.966"/><circle cx="208.794" cy="527.525" r="5.966"/><circle cx="672.403" cy="63.917" r="5.966"/><circle cx="672.403" cy="527.525" r="5.966"/><circle cx="208.794" cy="295.721" r="5.966"/><circle cx="208.794" cy="759.329" r="5.966"/><circle cx="672.403" cy="295.721" r="5.966"/><circle cx="672.403" cy="759.329" r="5.966"/><circle cx="440.598" cy="63.917" r="5.966"/><circle cx="440.598" cy="527.525" r="5.966"/><circle cx="904.207" cy="63.917" r="5.966"/><circle cx="904.207" cy="527.525" r="5.966"/><circle cx="440.598" cy="295.721" r="5.966"/><circle cx="440.598" cy="759.329" r="5.966"/><circle cx="904.207" cy="295.721" r="5.966"/><circle cx="904.207" cy="759.329" r="5.966"/><circle cx="208.794" cy="179.819" r="5.966"/><circle cx="208.794" cy="643.427" r="5.966"/><circle cx="672.403" cy="179.819" r="5.966"/><circle cx="672.403" cy="643.427" r="5.966"/><circle cx="208.794" cy="411.623" r="5.966"/><circle cx="208.794" cy="875.231" r="5.966"/><circle cx="672.403" cy="411.623" r="5.966"/><circle cx="672.403" cy="875.231" r="5.966"/><circle cx="440.598" cy="179.819" r="5.966"/><circle cx="440.598" cy="643.427" r="5.966"/><circle cx="904.207" cy="179.819" r="5.966"/><circle cx="904.207" cy="643.427" r="5.966"/><circle cx="440.598" cy="411.623" r="5.966"/><circle cx="440.598" cy="875.231" r="5.966"/><circle cx="904.207" cy="411.623" r="5.966"/><circle cx="904.207" cy="875.231" r="5.966"/><circle cx="121.868" cy="63.917" r="5.966"/><circle cx="121.868" cy="527.525" r="5.966"/><circle cx="585.476" cy="63.917" r="5.966"/><circle cx="585.476" cy="527.525" r="5.966"/><circle cx="121.868" cy="295.721" r="5.966"/><circle cx="121.868" cy="759.329" r="5.966"/><circle cx="585.476" cy="295.721" r="5.966"/><circle cx="585.476" cy="759.329" r="5.966"/><circle cx="353.672" cy="63.917" r="5.966"/><circle cx="353.672" cy="527.525" r="5.966"/><circle cx="817.28" cy="63.917" r="5.966"/><circle cx="817.28" cy="527.525" r="5.966"/><circle cx="353.672" cy="295.721" r="5.966"/><circle cx="353.672" cy="759.329" r="5.966"/><circle cx="817.28" cy="295.721" r="5.966"/><circle cx="817.28" cy="759.329" r="5.966"/><circle cx="121.868" cy="179.819" r="5.966"/><circle cx="121.868" cy="643.427" r="5.966"/><circle cx="585.476" cy="179.819" r="5.966"/><circle cx="585.476" cy="643.427" r="5.966"/><circle cx="121.868" cy="411.623" r="5.966"/><circle cx="121.868" cy="875.231" r="5.966"/><circle cx="585.476" cy="411.623" r="5.966"/><circle cx="585.476" cy="875.231" r="5.966"/><circle cx="353.672" cy="179.819" r="5.966"/><circle cx="353.672" cy="643.427" r="5.966"/><circle cx="817.28" cy="179.819" r="5.966"/><circle cx="817.28" cy="643.427" r="5.966"/><circle cx="353.672" cy="411.623" r="5.966"/><circle cx="353.672" cy="875.231" r="5.966"/><circle cx="817.28" cy="411.623" r="5.966"/><circle cx="817.28" cy="875.231" r="5.966"/><circle cx="237.77" cy="63.917" r="5.966"/><circle cx="237.77" cy="527.525" r="5.966"/><circle cx="701.378" cy="63.917" r="5.966"/><circle cx="701.378" cy="527.525" r="5.966"/><circle cx="237.77" cy="295.721" r="5.966"/><circle cx="237.77" cy="759.329" r="5.966"/><circle cx="701.378" cy="295.721" r="5.966"/><circle cx="701.378" cy="759.329" r="5.966"/><circle cx="469.574" cy="63.917" r="5.966"/><circle cx="469.574" cy="527.525" r="5.966"/><circle cx="933.182" cy="63.917" r="5.966"/><circle cx="933.182" cy="527.525" r="5.966"/><circle cx="469.574" cy="295.721" r="5.966"/><circle cx="469.574" cy="759.329" r="5.966"/><circle cx="933.182" cy="295.721" r="5.966"/><circle cx="933.182" cy="759.329" r="5.966"/><circle cx="237.77" cy="179.819" r="5.966"/><circle cx="237.77" cy="643.427" r="5.966"/><circle cx="701.378" cy="179.819" r="5.966"/><circle cx="701.378" cy="643.427" r="5.966"/><circle cx="237.77" cy="411.623" r="5.966"/><circle cx="237.77" cy="875.231" r="5.966"/><circle cx="701.378" cy="411.623" r="5.966"/><circle cx="701.378" cy="875.231" r="5.966"/><circle cx="469.574" cy="179.819" r="5.966"/><circle cx="469.574" cy="643.427" r="5.966"/><circle cx="933.182" cy="179.819" r="5.966"/><circle cx="933.182" cy="643.427" r="5.966"/><circle cx="469.574" cy="411.623" r="5.966"/><circle cx="469.574" cy="875.231" r="5.966"/><circle cx="933.182" cy="411.623" r="5.966"/><circle cx="933.182" cy="875.231" r="5.966"/><circle cx="5.966" cy="92.892" r="5.966"/><circle cx="5.966" cy="556.5" r="5.966"/><circle cx="5.966" cy="324.696" r="5.966"/><circle cx="5.966" cy="788.305" r="5.966"/><circle cx="5.966" cy="208.794" r="5.966"/><circle cx="5.966" cy="672.402" r="5.966"/><circle cx="5.966" cy="440.598" r="5.966"/><circle cx="5.966" cy="904.207" r="5.966"/><circle cx="5.966" cy="121.868" r="5.966"/><circle cx="5.966" cy="585.476" r="5.966"/><circle cx="5.966" cy="353.672" r="5.966"/><circle cx="5.966" cy="817.28" r="5.966"/><circle cx="5.966" cy="237.77" r="5.966"/><circle cx="5.966" cy="701.378" r="5.966"/><circle cx="5.966" cy="469.574" r="5.966"/><circle cx="5.966" cy="933.182" r="5.966"/><circle cx="34.941" cy="92.892" r="5.966"/><circle cx="34.941" cy="556.5" r="5.966"/><circle cx="498.55" cy="92.892" r="5.966"/><circle cx="498.55" cy="556.5" r="5.966"/><circle cx="34.941" cy="324.696" r="5.966"/><circle cx="34.941" cy="788.305" r="5.966"/><circle cx="498.55" cy="324.696" r="5.966"/><circle cx="498.55" cy="788.305" r="5.966"/><circle cx="266.745" cy="92.892" r="5.966"/><circle cx="266.745" cy="556.5" r="5.966"/><circle cx="730.353" cy="92.892" r="5.966"/><circle cx="730.353" cy="556.5" r="5.966"/><circle cx="266.745" cy="324.696" r="5.966"/><circle cx="266.745" cy="788.305" r="5.966"/><circle cx="730.353" cy="324.696" r="5.966"/><circle cx="730.353" cy="788.305" r="5.966"/><circle cx="34.941" cy="208.794" r="5.966"/><circle cx="34.941" cy="672.402" r="5.966"/><circle cx="498.55" cy="208.794" r="5.966"/><circle cx="498.55" cy="672.402" r="5.966"/><circle cx="34.941" cy="440.598" r="5.966"/><circle cx="34.941" cy="904.207" r="5.966"/><circle cx="498.55" cy="440.598" r="5.966"/><circle cx="498.55" cy="904.207" r="5.966"/><circle cx="266.745" cy="208.794" r="5.966"/><circle cx="266.745" cy="672.402" r="5.966"/><circle cx="730.353" cy="208.794" r="5.966"/><circle cx="730.353" cy="672.402" r="5.966"/><circle cx="266.745" cy="440.598" r="5.966"/><circle cx="266.745" cy="904.207" r="5.966"/><circle cx="730.353" cy="440.598" r="5.966"/><circle cx="730.353" cy="904.207" r="5.966"/><circle cx="150.843" cy="92.892" r="5.966"/><circle cx="150.843" cy="556.5" r="5.966"/><circle cx="614.452" cy="92.892" r="5.966"/><circle cx="614.452" cy="556.5" r="5.966"/><circle cx="150.843" cy="324.696" r="5.966"/><circle cx="150.843" cy="788.305" r="5.966"/><circle cx="614.452" cy="324.696" r="5.966"/><circle cx="614.452" cy="788.305" r="5.966"/><circle cx="382.647" cy="92.892" r="5.966"/><circle cx="382.647" cy="556.5" r="5.966"/><circle cx="846.256" cy="92.892" r="5.966"/><circle cx="846.256" cy="556.5" r="5.966"/><circle cx="382.647" cy="324.696" r="5.966"/><circle cx="382.647" cy="788.305" r="5.966"/><circle cx="846.256" cy="324.696" r="5.966"/><circle cx="846.256" cy="788.305" r="5.966"/><circle cx="150.843" cy="208.794" r="5.966"/><circle cx="150.843" cy="672.402" r="5.966"/><circle cx="614.452" cy="208.794" r="5.966"/><circle cx="614.452" cy="672.402" r="5.966"/><circle cx="150.843" cy="440.598" r="5.966"/><circle cx="150.843" cy="904.207" r="5.966"/><circle cx="614.452" cy="440.598" r="5.966"/><circle cx="614.452" cy="904.207" r="5.966"/><circle cx="382.647" cy="208.794" r="5.966"/><circle cx="382.647" cy="672.402" r="5.966"/><circle cx="846.256" cy="208.794" r="5.966"/><circle cx="846.256" cy="672.402" r="5.966"/><circle cx="382.647" cy="440.598" r="5.966"/><circle cx="382.647" cy="904.207" r="5.966"/><circle cx="846.256" cy="440.598" r="5.966"/><circle cx="846.256" cy="904.207" r="5.966"/><circle cx="34.941" cy="121.868" r="5.966"/><circle cx="34.941" cy="585.476" r="5.966"/><circle cx="498.55" cy="121.868" r="5.966"/><circle cx="498.55" cy="585.476" r="5.966"/><circle cx="34.941" cy="353.672" r="5.966"/><circle cx="34.941" cy="817.28" r="5.966"/><circle cx="498.55" cy="353.672" r="5.966"/><circle cx="498.55" cy="817.28" r="5.966"/><circle cx="266.745" cy="121.868" r="5.966"/><circle cx="266.745" cy="585.476" r="5.966"/><circle cx="730.353" cy="121.868" r="5.966"/><circle cx="730.353" cy="585.476" r="5.966"/><circle cx="266.745" cy="353.672" r="5.966"/><circle cx="266.745" cy="817.28" r="5.966"/><circle cx="730.353" cy="353.672" r="5.966"/><circle cx="730.353" cy="817.28" r="5.966"/><circle cx="34.941" cy="237.77" r="5.966"/><circle cx="34.941" cy="701.378" r="5.966"/><circle cx="498.55" cy="237.77" r="5.966"/><circle cx="498.55" cy="701.378" r="5.966"/><circle cx="34.941" cy="469.574" r="5.966"/><circle cx="34.941" cy="933.182" r="5.966"/><circle cx="498.55" cy="469.574" r="5.966"/><circle cx="498.55" cy="933.182" r="5.966"/><circle cx="266.745" cy="237.77" r="5.966"/><circle cx="266.745" cy="701.378" r="5.966"/><circle cx="730.353" cy="237.77" r="5.966"/><circle cx="730.353" cy="701.378" r="5.966"/><circle cx="266.745" cy="469.574" r="5.966"/><circle cx="266.745" cy="933.182" r="5.966"/><circle cx="730.353" cy="469.574" r="5.966"/><circle cx="730.353" cy="933.182" r="5.966"/><circle cx="150.843" cy="121.868" r="5.966"/><circle cx="150.843" cy="585.476" r="5.966"/><circle cx="614.452" cy="121.868" r="5.966"/><circle cx="614.452" cy="585.476" r="5.966"/><circle cx="150.843" cy="353.672" r="5.966"/><circle cx="150.843" cy="817.28" r="5.966"/><circle cx="614.452" cy="353.672" r="5.966"/><circle cx="614.452" cy="817.28" r="5.966"/><circle cx="382.647" cy="121.868" r="5.966"/><circle cx="382.647" cy="585.476" r="5.966"/><circle cx="846.256" cy="121.868" r="5.966"/><circle cx="846.256" cy="585.476" r="5.966"/><circle cx="382.647" cy="353.672" r="5.966"/><circle cx="382.647" cy="817.28" r="5.966"/><circle cx="846.256" cy="353.672" r="5.966"/><circle cx="846.256" cy="817.28" r="5.966"/><circle cx="150.843" cy="237.77" r="5.966"/><circle cx="150.843" cy="701.378" r="5.966"/><circle cx="614.452" cy="237.77" r="5.966"/><circle cx="614.452" cy="701.378" r="5.966"/><circle cx="150.843" cy="469.574" r="5.966"/><circle cx="150.843" cy="933.182" r="5.966"/><circle cx="614.452" cy="469.574" r="5.966"/><circle cx="614.452" cy="933.182" r="5.966"/><circle cx="382.647" cy="237.77" r="5.966"/><circle cx="382.647" cy="701.378" r="5.966"/><circle cx="846.256" cy="237.77" r="5.966"/><circle cx="846.256" cy="701.378" r="5.966"/><circle cx="382.647" cy="469.574" r="5.966"/><circle cx="382.647" cy="933.182" r="5.966"/><circle cx="846.256" cy="469.574" r="5.966"/><circle cx="846.256" cy="933.182" r="5.966"/><circle cx="92.892" cy="92.892" r="5.966"/><circle cx="92.892" cy="556.5" r="5.966"/><circle cx="556.501" cy="92.892" r="5.966"/><circle cx="556.501" cy="556.5" r="5.966"/><circle cx="92.892" cy="324.696" r="5.966"/><circle cx="92.892" cy="788.305" r="5.966"/><circle cx="556.501" cy="324.696" r="5.966"/><circle cx="556.501" cy="788.305" r="5.966"/><circle cx="324.696" cy="92.892" r="5.966"/><circle cx="324.696" cy="556.5" r="5.966"/><circle cx="788.304" cy="92.892" r="5.966"/><circle cx="788.304" cy="556.5" r="5.966"/><circle cx="324.696" cy="324.696" r="5.966"/><circle cx="324.696" cy="788.305" r="5.966"/><circle cx="788.304" cy="324.696" r="5.966"/><circle cx="788.304" cy="788.305" r="5.966"/><circle cx="92.892" cy="208.794" r="5.966"/><circle cx="92.892" cy="672.402" r="5.966"/><circle cx="556.501" cy="208.794" r="5.966"/><circle cx="556.501" cy="672.402" r="5.966"/><circle cx="92.892" cy="440.598" r="5.966"/><circle cx="92.892" cy="904.207" r="5.966"/><circle cx="556.501" cy="440.598" r="5.966"/><circle cx="556.501" cy="904.207" r="5.966"/><circle cx="324.696" cy="208.794" r="5.966"/><circle cx="324.696" cy="672.402" r="5.966"/><circle cx="788.304" cy="208.794" r="5.966"/><circle cx="788.304" cy="672.402" r="5.966"/><circle cx="324.696" cy="440.598" r="5.966"/><circle cx="324.696" cy="904.207" r="5.966"/><circle cx="788.304" cy="440.598" r="5.966"/><circle cx="788.304" cy="904.207" r="5.966"/><circle cx="208.794" cy="92.892" r="5.966"/><circle cx="208.794" cy="556.5" r="5.966"/><circle cx="672.403" cy="92.892" r="5.966"/><circle cx="672.403" cy="556.5" r="5.966"/><circle cx="208.794" cy="324.696" r="5.966"/><circle cx="208.794" cy="788.305" r="5.966"/><circle cx="672.403" cy="324.696" r="5.966"/><circle cx="672.403" cy="788.305" r="5.966"/><circle cx="440.598" cy="92.892" r="5.966"/><circle cx="440.598" cy="556.5" r="5.966"/><circle cx="904.207" cy="92.892" r="5.966"/><circle cx="904.207" cy="556.5" r="5.966"/><circle cx="440.598" cy="324.696" r="5.966"/><circle cx="440.598" cy="788.305" r="5.966"/><circle cx="904.207" cy="324.696" r="5.966"/><circle cx="904.207" cy="788.305" r="5.966"/><circle cx="208.794" cy="208.794" r="5.966"/><circle cx="208.794" cy="672.402" r="5.966"/><circle cx="672.403" cy="208.794" r="5.966"/><circle cx="672.403" cy="672.402" r="5.966"/><circle cx="208.794" cy="440.598" r="5.966"/><circle cx="208.794" cy="904.207" r="5.966"/><circle cx="672.403" cy="440.598" r="5.966"/><circle cx="672.403" cy="904.207" r="5.966"/><circle cx="440.598" cy="208.794" r="5.966"/><circle cx="440.598" cy="672.402" r="5.966"/><circle cx="904.207" cy="208.794" r="5.966"/><circle cx="904.207" cy="672.402" r="5.966"/><circle cx="440.598" cy="440.598" r="5.966"/><circle cx="440.598" cy="904.207" r="5.966"/><circle cx="904.207" cy="440.598" r="5.966"/><circle cx="904.207" cy="904.207" r="5.966"/><circle cx="92.892" cy="121.868" r="5.966"/><circle cx="92.892" cy="585.476" r="5.966"/><circle cx="556.501" cy="121.868" r="5.966"/><circle cx="556.501" cy="585.476" r="5.966"/><circle cx="92.892" cy="353.672" r="5.966"/><circle cx="92.892" cy="817.28" r="5.966"/><circle cx="556.501" cy="353.672" r="5.966"/><circle cx="556.501" cy="817.28" r="5.966"/><circle cx="324.696" cy="121.868" r="5.966"/><circle cx="324.696" cy="585.476" r="5.966"/><circle cx="788.304" cy="121.868" r="5.966"/><circle cx="788.304" cy="585.476" r="5.966"/><circle cx="324.696" cy="353.672" r="5.966"/><circle cx="324.696" cy="817.28" r="5.966"/><circle cx="788.304" cy="353.672" r="5.966"/><circle cx="788.304" cy="817.28" r="5.966"/><circle cx="92.892" cy="237.77" r="5.966"/><circle cx="92.892" cy="701.378" r="5.966"/><circle cx="556.501" cy="237.77" r="5.966"/><circle cx="556.501" cy="701.378" r="5.966"/><circle cx="92.892" cy="469.574" r="5.966"/><circle cx="92.892" cy="933.182" r="5.966"/><circle cx="556.501" cy="469.574" r="5.966"/><circle cx="556.501" cy="933.182" r="5.966"/><circle cx="324.696" cy="237.77" r="5.966"/><circle cx="324.696" cy="701.378" r="5.966"/><circle cx="788.304" cy="237.77" r="5.966"/><circle cx="788.304" cy="701.378" r="5.966"/><circle cx="324.696" cy="469.574" r="5.966"/><circle cx="324.696" cy="933.182" r="5.966"/><circle cx="788.304" cy="469.574" r="5.966"/><circle cx="788.304" cy="933.182" r="5.966"/><circle cx="208.794" cy="121.868" r="5.966"/><circle cx="208.794" cy="585.476" r="5.966"/><circle cx="672.403" cy="121.868" r="5.966"/><circle cx="672.403" cy="585.476" r="5.966"/><circle cx="208.794" cy="353.672" r="5.966"/><circle cx="208.794" cy="817.28" r="5.966"/><circle cx="672.403" cy="353.672" r="5.966"/><circle cx="672.403" cy="817.28" r="5.966"/><circle cx="440.598" cy="121.868" r="5.966"/><circle cx="440.598" cy="585.476" r="5.966"/><circle cx="904.207" cy="121.868" r="5.966"/><circle cx="904.207" cy="585.476" r="5.966"/><circle cx="440.598" cy="353.672" r="5.966"/><circle cx="440.598" cy="817.28" r="5.966"/><circle cx="904.207" cy="353.672" r="5.966"/><circle cx="904.207" cy="817.28" r="5.966"/><circle cx="208.794" cy="237.77" r="5.966"/><circle cx="208.794" cy="701.378" r="5.966"/><circle cx="672.403" cy="237.77" r="5.966"/><circle cx="672.403" cy="701.378" r="5.966"/><circle cx="208.794" cy="469.574" r="5.966"/><circle cx="208.794" cy="933.182" r="5.966"/><circle cx="672.403" cy="469.574" r="5.966"/><circle cx="672.403" cy="933.182" r="5.966"/><circle cx="440.598" cy="237.77" r="5.966"/><circle cx="440.598" cy="701.378" r="5.966"/><circle cx="904.207" cy="237.77" r="5.966"/><circle cx="904.207" cy="701.378" r="5.966"/><circle cx="440.598" cy="469.574" r="5.966"/><circle cx="440.598" cy="933.182" r="5.966"/><circle cx="904.207" cy="469.574" r="5.966"/><circle cx="904.207" cy="933.182" r="5.966"/><circle cx="121.868" cy="92.892" r="5.966"/><circle cx="121.868" cy="556.5" r="5.966"/><circle cx="585.476" cy="92.892" r="5.966"/><circle cx="585.476" cy="556.5" r="5.966"/><circle cx="121.868" cy="324.696" r="5.966"/><circle cx="121.868" cy="788.305" r="5.966"/><circle cx="585.476" cy="324.696" r="5.966"/><circle cx="585.476" cy="788.305" r="5.966"/><circle cx="353.672" cy="92.892" r="5.966"/><circle cx="353.672" cy="556.5" r="5.966"/><circle cx="817.28" cy="92.892" r="5.966"/><circle cx="817.28" cy="556.5" r="5.966"/><circle cx="353.672" cy="324.696" r="5.966"/><circle cx="353.672" cy="788.305" r="5.966"/><circle cx="817.28" cy="324.696" r="5.966"/><circle cx="817.28" cy="788.305" r="5.966"/><circle cx="121.868" cy="208.794" r="5.966"/><circle cx="121.868" cy="672.402" r="5.966"/><circle cx="585.476" cy="208.794" r="5.966"/><circle cx="585.476" cy="672.402" r="5.966"/><circle cx="121.868" cy="440.598" r="5.966"/><circle cx="121.868" cy="904.207" r="5.966"/><circle cx="585.476" cy="440.598" r="5.966"/><circle cx="585.476" cy="904.207" r="5.966"/><circle cx="353.672" cy="208.794" r="5.966"/><circle cx="353.672" cy="672.402" r="5.966"/><circle cx="817.28" cy="208.794" r="5.966"/><circle cx="817.28" cy="672.402" r="5.966"/><circle cx="353.672" cy="440.598" r="5.966"/><circle cx="353.672" cy="904.207" r="5.966"/><circle cx="817.28" cy="440.598" r="5.966"/><circle cx="817.28" cy="904.207" r="5.966"/><circle cx="237.77" cy="92.892" r="5.966"/><circle cx="237.77" cy="556.5" r="5.966"/><circle cx="701.378" cy="92.892" r="5.966"/><circle cx="701.378" cy="556.5" r="5.966"/><circle cx="237.77" cy="324.696" r="5.966"/><circle cx="237.77" cy="788.305" r="5.966"/><circle cx="701.378" cy="324.696" r="5.966"/><circle cx="701.378" cy="788.305" r="5.966"/><circle cx="469.574" cy="92.892" r="5.966"/><circle cx="469.574" cy="556.5" r="5.966"/><circle cx="933.182" cy="92.892" r="5.966"/><circle cx="933.182" cy="556.5" r="5.966"/><circle cx="469.574" cy="324.696" r="5.966"/><circle cx="469.574" cy="788.305" r="5.966"/><circle cx="933.182" cy="324.696" r="5.966"/><circle cx="933.182" cy="788.305" r="5.966"/><circle cx="237.77" cy="208.794" r="5.966"/><circle cx="237.77" cy="672.402" r="5.966"/><circle cx="701.378" cy="208.794" r="5.966"/><circle cx="701.378" cy="672.402" r="5.966"/><circle cx="237.77" cy="440.598" r="5.966"/><circle cx="237.77" cy="904.207" r="5.966"/><circle cx="701.378" cy="440.598" r="5.966"/><circle cx="701.378" cy="904.207" r="5.966"/><circle cx="469.574" cy="208.794" r="5.966"/><circle cx="469.574" cy="672.402" r="5.966"/><circle cx="933.182" cy="208.794" r="5.966"/><circle cx="933.182" cy="672.402" r="5.966"/><circle cx="469.574" cy="440.598" r="5.966"/><circle cx="469.574" cy="904.207" r="5.966"/><circle cx="933.182" cy="440.598" r="5.966"/><circle cx="933.182" cy="904.207" r="5.966"/><circle cx="121.868" cy="121.868" r="5.966"/><circle cx="121.868" cy="585.476" r="5.966"/><circle cx="585.476" cy="121.868" r="5.966"/><circle cx="585.476" cy="585.476" r="5.966"/><circle cx="121.868" cy="353.672" r="5.966"/><circle cx="121.868" cy="817.28" r="5.966"/><circle cx="585.476" cy="353.672" r="5.966"/><circle cx="585.476" cy="817.28" r="5.966"/><circle cx="353.672" cy="121.868" r="5.966"/><circle cx="353.672" cy="585.476" r="5.966"/><circle cx="817.28" cy="121.868" r="5.966"/><circle cx="817.28" cy="585.476" r="5.966"/><circle cx="353.672" cy="353.672" r="5.966"/><circle cx="353.672" cy="817.28" r="5.966"/><circle cx="817.28" cy="353.672" r="5.966"/><circle cx="817.28" cy="817.28" r="5.966"/><circle cx="121.868" cy="237.77" r="5.966"/><circle cx="121.868" cy="701.378" r="5.966"/><circle cx="585.476" cy="237.77" r="5.966"/><circle cx="585.476" cy="701.378" r="5.966"/><circle cx="121.868" cy="469.574" r="5.966"/><circle cx="121.868" cy="933.182" r="5.966"/><circle cx="585.476" cy="469.574" r="5.966"/><circle cx="585.476" cy="933.182" r="5.966"/><circle cx="353.672" cy="237.77" r="5.966"/><circle cx="353.672" cy="701.378" r="5.966"/><circle cx="817.28" cy="237.77" r="5.966"/><circle cx="817.28" cy="701.378" r="5.966"/><circle cx="353.672" cy="469.574" r="5.966"/><circle cx="353.672" cy="933.182" r="5.966"/><circle cx="817.28" cy="469.574" r="5.966"/><circle cx="817.28" cy="933.182" r="5.966"/><circle cx="237.77" cy="121.868" r="5.966"/><circle cx="237.77" cy="585.476" r="5.966"/><circle cx="701.378" cy="121.868" r="5.966"/><circle cx="701.378" cy="585.476" r="5.966"/><circle cx="237.77" cy="353.672" r="5.966"/><circle cx="237.77" cy="817.28" r="5.966"/><circle cx="701.378" cy="353.672" r="5.966"/><circle cx="701.378" cy="817.28" r="5.966"/><circle cx="469.574" cy="121.868" r="5.966"/><circle cx="469.574" cy="585.476" r="5.966"/><circle cx="933.182" cy="121.868" r="5.966"/><circle cx="933.182" cy="585.476" r="5.966"/><circle cx="469.574" cy="353.672" r="5.966"/><circle cx="469.574" cy="817.28" r="5.966"/><circle cx="933.182" cy="353.672" r="5.966"/><circle cx="933.182" cy="817.28" r="5.966"/><circle cx="237.77" cy="237.77" r="5.966"/><circle cx="237.77" cy="701.378" r="5.966"/><circle cx="701.378" cy="237.77" r="5.966"/><circle cx="701.378" cy="701.378" r="5.966"/><circle cx="237.77" cy="469.574" r="5.966"/><circle cx="237.77" cy="933.182" r="5.966"/><circle cx="701.378" cy="469.574" r="5.966"/><circle cx="701.378" cy="933.182" r="5.966"/><circle cx="469.574" cy="237.77" r="5.966"/><circle cx="469.574" cy="701.378" r="5.966"/><circle cx="933.182" cy="237.77" r="5.966"/><circle cx="933.182" cy="701.378" r="5.966"/><circle cx="469.574" cy="469.574" r="5.966"/><circle cx="469.574" cy="933.182" r="5.966"/><circle cx="933.182" cy="469.574" r="5.966"/><circle cx="933.182" cy="933.182" r="5.966"/></g><defs><radialGradient id="paint0_radial_202_1416" cx="0" cy="0" r="1" gradientUnits="userSpaceOnUse" gradientTransform="matrix(0 469.574 -470 0 470 469.574)"><stop stop-color="#D9D9D9"/><stop offset="1" stop-color="#D9D9D9" stop-opacity="0"/></radialGradient></defs></svg>