<svg width="740" height="351" fill="none" xmlns="http://www.w3.org/2000/svg"><path d="M129.682 0v89.684H35.936V0H0v218.741h35.936v-94.683h93.746v94.683h35.936V0h-35.936zM330.9 62.498v22.186c-11.875-16.25-30.311-26.249-54.685-26.249-42.499 0-77.81 35.624-77.81 82.184 0 46.249 35.311 82.185 77.81 82.185 24.374 0 42.81-10 54.685-26.562v22.499h33.749V62.497H330.9zm-49.373 128.119c-28.124 0-49.373-20.936-49.373-49.998 0-29.061 21.249-49.998 49.373-49.998S330.9 111.558 330.9 140.62s-21.249 49.998-49.373 49.998zM486.17 58.435c-21.249 0-38.124 7.812-48.436 24.062v-20h-33.748v156.244h33.748v-83.746c0-31.874 17.5-44.999 39.686-44.999 21.249 0 34.999 12.5 34.999 36.249v92.496h33.748v-95.933c0-40.624-24.999-64.373-59.997-64.373zM706.251 0v84.684c-11.874-16.25-30.311-26.249-54.685-26.249-42.498 0-77.809 35.624-77.809 82.184 0 46.249 35.311 82.185 77.809 82.185 24.374 0 42.811-10 54.685-26.562v22.499H740V0h-33.749zm-49.373 190.617c-28.124 0-49.373-20.936-49.373-49.998 0-29.061 21.249-49.998 49.373-49.998s49.373 20.937 49.373 49.998c0 29.062-21.249 49.998-49.373 49.998z" fill="#1D1D1D"/><path d="M218.767 0h-3.71l-6.392 10.554L202.302 0h-3.74v21.109h3.468V6.03l6.423 10.645h.423l6.423-10.615v15.05h3.468V0zm15.939 6.031v2.141c-1.146-1.568-2.925-2.533-5.277-2.533-4.102 0-7.509 3.438-7.509 7.93 0 4.464 3.407 7.932 7.509 7.932 2.352 0 4.131-.965 5.277-2.564v2.172h3.257V6.03h-3.257zm-4.765 12.364c-2.714 0-4.764-2.02-4.764-4.825s2.05-4.825 4.764-4.825c2.714 0 4.765 2.02 4.765 4.825 0 2.804-2.051 4.825-4.765 4.825zm18.934 3.105c2.955 0 5.519-1.537 6.785-3.92l-2.804-1.598c-.724 1.387-2.202 2.322-4.011 2.322-2.654 0-4.674-2.02-4.674-4.734s2.02-4.734 4.674-4.734c1.809 0 3.287.904 3.95 2.322l2.805-1.629c-1.206-2.352-3.77-3.89-6.725-3.89-4.553 0-7.961 3.438-7.961 7.93 0 4.464 3.408 7.932 7.961 7.932zm20.511-15.469h-13.117v3.136h4.945V21.11h3.257V9.167h4.915V6.031zm4.178 8.926h12.002a9.92 9.92 0 00.121-1.357c0-4.342-3.076-7.96-7.569-7.96-4.735 0-7.961 3.467-7.961 7.93 0 4.523 3.226 7.93 8.202 7.93 2.955 0 5.217-1.236 6.604-3.286l-2.684-1.568c-.724 1.055-2.081 1.87-3.89 1.87-2.412 0-4.312-1.207-4.825-3.559zm-.03-2.654c.452-2.261 2.111-3.709 4.554-3.709 1.96 0 3.859 1.116 4.312 3.71h-8.866zm23.552-6.663c-2.352 0-4.131.964-5.277 2.562v-2.17h-3.257V27.14h3.257v-8.172c1.146 1.568 2.925 2.533 5.277 2.533 4.101 0 7.509-3.438 7.509-7.931 0-4.463-3.408-7.931-7.509-7.931zm-.512 12.755c-2.714 0-4.765-2.02-4.765-4.825s2.051-4.825 4.765-4.825c2.714 0 4.764 2.02 4.764 4.825 0 2.804-2.05 4.825-4.764 4.825zm18.723-4.885h11.157v-3.137h-11.157v3.137zm36.028 7.599l-6.875-7.69 6.634-7.388h-3.981l-5.85 6.664V6.031h-3.256V21.11h3.256v-6.966l6.182 6.966h3.89zm14.916-15.078h-11.549v8.594c0 2.835-.995 3.74-2.774 3.438v3.046c3.709.362 6.031-1.387 6.031-6.333V9.167h5.036V21.11h3.256V6.03zm15.737 0v2.141c-1.146-1.568-2.925-2.533-5.277-2.533-4.101 0-7.509 3.438-7.509 7.93 0 4.464 3.408 7.932 7.509 7.932 2.352 0 4.131-.965 5.277-2.564v2.172h3.257V6.03h-3.257zm-4.764 12.364c-2.714 0-4.765-2.02-4.765-4.825s2.051-4.825 4.765-4.825c2.714 0 4.764 2.02 4.764 4.825 0 2.804-2.05 4.825-4.764 4.825zm18.934 3.105c2.955 0 5.518-1.537 6.784-3.92l-2.804-1.598c-.724 1.387-2.201 2.322-4.011 2.322-2.653 0-4.674-2.02-4.674-4.734s2.021-4.734 4.674-4.734c1.81 0 3.287.904 3.951 2.322l2.804-1.629c-1.206-2.352-3.769-3.89-6.724-3.89-4.554 0-7.961 3.438-7.961 7.93 0 4.464 3.407 7.932 7.961 7.932zm16.02 0c2.955 0 5.518-1.537 6.784-3.92l-2.804-1.598c-.724 1.387-2.201 2.322-4.011 2.322-2.653 0-4.674-2.02-4.674-4.734s2.021-4.734 4.674-4.734c1.81 0 3.287.904 3.951 2.322l2.804-1.629c-1.206-2.352-3.769-3.89-6.724-3.89-4.554 0-7.961 3.438-7.961 7.93 0 4.464 3.407 7.932 7.961 7.932zm30.185-15.469h-13.419V21.11h3.256V9.107h6.906v12.002h3.257V6.03zM453.248 21.5c4.433 0 7.961-3.467 7.961-7.93 0-4.493-3.528-7.931-7.961-7.931-4.402 0-7.961 3.438-7.961 7.93 0 4.464 3.559 7.932 7.961 7.932zm0-3.166c-2.653 0-4.704-2.02-4.704-4.764s2.051-4.765 4.704-4.765c2.654 0 4.705 2.02 4.705 4.765 0 2.744-2.051 4.764-4.705 4.764zm31.924 2.775l-5.639-7.72 5.368-7.358h-3.8l-3.467 4.765-3.468-4.765h-3.77l5.368 7.328-5.669 7.75h3.799l3.77-5.157 3.739 5.157h3.769zm13.104-15.078l-7.72 9.56V6.03h-3.196v15.08h2.503l7.719-9.59v9.59h3.197V6.03h-2.503zm14.816-.391c-2.353 0-4.132.964-5.278 2.562v-2.17h-3.256V27.14h3.256v-8.172c1.146 1.568 2.925 2.533 5.278 2.533 4.101 0 7.508-3.438 7.508-7.931 0-4.463-3.407-7.931-7.508-7.931zm-.513 12.755c-2.714 0-4.765-2.02-4.765-4.825s2.051-4.825 4.765-4.825c2.714 0 4.764 2.02 4.764 4.825 0 2.804-2.05 4.825-4.764 4.825zm20.546-12.364l-3.86 10.977-4.583-10.977h-3.468l6.333 14.957-.091.211c-.754 2.02-1.9 3.016-4.011 2.895v3.046c3.318.21 5.941-1.72 7.358-5.549l5.79-15.56h-3.468zm14.039-.391c-2.353 0-4.132.964-5.278 2.562v-2.17h-3.256V27.14h3.256v-8.172c1.146 1.568 2.925 2.533 5.278 2.533 4.101 0 7.508-3.438 7.508-7.931 0-4.463-3.407-7.931-7.508-7.931zm-.513 12.755c-2.714 0-4.765-2.02-4.765-4.825s2.051-4.825 4.765-4.825c2.714 0 4.764 2.02 4.764 4.825 0 2.804-2.05 4.825-4.764 4.825zm21.075-12.364h-10.102V21.11h3.257V9.167h6.845V6.031zm13.124 0l-7.72 9.56V6.03h-3.197v15.08h2.503l7.72-9.59v9.59h3.197V6.03h-2.503zm17.198 0l-7.72 9.56V6.03h-3.197v15.08h2.503l7.72-9.59v9.59h3.196V6.03h-2.502zm27.149 15.078l-6.876-7.69 6.635-7.388h-3.981l-5.85 6.664V6.031h-3.257V21.11h3.257v-6.966l6.182 6.966h3.89zm13.107-15.078l-7.72 9.56V6.03h-3.196v15.08h2.502l7.72-9.59v9.59h3.197V6.03h-2.503zM651.702 21.5c2.955 0 5.519-1.537 6.785-3.92l-2.804-1.598c-.724 1.387-2.202 2.322-4.011 2.322-2.654 0-4.674-2.02-4.674-4.734s2.02-4.734 4.674-4.734c1.809 0 3.287.904 3.95 2.322l2.805-1.629c-1.206-2.352-3.77-3.89-6.725-3.89-4.553 0-7.961 3.438-7.961 7.93 0 4.464 3.408 7.932 7.961 7.932zm20.511-15.469h-13.117v3.136h4.945V21.11h3.257V9.167h4.915V6.031zm13.12 0l-7.72 9.56V6.03h-3.196v15.08h2.503l7.72-9.59v9.59h3.196V6.03h-2.503z" fill="#25468B"/><path d="M74.042 278.365c-9.29 0-18.164 4.437-23.156 14.143-3.605-9.151-11.508-14.143-21.63-14.143-8.874 0-17.193 3.883-22.323 13.45v-11.924H0v69.327h6.933v-38.685c0-17.748 10.122-25.512 21.491-25.512 10.677 0 17.748 7.071 17.748 20.243v43.954h6.933v-38.685c0-17.748 9.151-25.512 20.798-25.512 10.815 0 18.441 7.071 18.441 20.243v43.954h6.933v-43.954c0-17.331-10.538-26.899-25.235-26.899zm105.852 1.526v15.668c-5.824-10.4-16.5-17.194-29.811-17.194-19.689 0-35.912 15.668-35.912 36.189s16.223 36.189 35.912 36.189c13.311 0 23.987-6.794 29.811-17.193v15.668h7.071v-69.327h-7.071zm-29.257 64.197c-16.499 0-29.394-13.034-29.394-29.534s12.895-29.533 29.394-29.533c16.5 0 29.257 13.033 29.257 29.533s-12.757 29.534-29.257 29.534zm62.33-46.034c0-8.319 7.626-13.033 16.639-13.033 7.626 0 14.836 3.328 17.747 10.538l5.824-3.328c-3.744-8.458-12.34-13.866-23.571-13.866-14.143 0-23.572 8.736-23.572 19.689 0 24.958 42.013 14.143 42.013 33 0 8.735-8.181 13.034-17.887 13.034-10.399 0-17.886-4.715-20.382-12.202l-5.962 3.466c3.328 8.874 12.479 15.391 26.344 15.391 14.836 0 24.819-8.319 24.819-19.689 0-25.374-42.012-14.42-42.012-33zm91.578-11.369v-6.794h-20.659v-19.412l-7.072 2.08v17.332h-15.252v6.794h15.252v45.062c0 15.807 9.567 20.244 27.731 17.471v-6.24c-14.143 1.248-20.659.971-20.659-11.231v-45.062h20.659zm43.635-8.32c-21.214 0-35.911 15.807-35.911 36.189 0 20.937 15.113 36.189 36.466 36.189 13.727 0 24.542-6.239 30.227-15.668l-6.101-3.605c-4.021 7.349-12.618 12.618-23.987 12.618-15.807 0-27.731-10.261-29.395-25.929h62.81c0-1.109.139-2.218.139-3.327 0-18.996-13.172-36.467-34.248-36.467zm0 6.656c13.588 0 25.513 9.428 27.038 26.344h-55.739c1.386-15.39 12.895-26.344 28.701-26.344zm57.385 8.458v-13.588h-6.933v69.327h6.933v-38.546c0-17.748 11.231-25.097 23.155-25.097v-6.655c-9.428 0-18.441 3.605-23.155 14.559zm64.764 57.264c13.588 0 25.235-6.933 30.781-17.609l-5.824-3.466c-4.575 8.596-13.726 14.42-24.957 14.42-16.778 0-29.395-13.034-29.395-29.534s12.617-29.533 29.395-29.533c11.092 0 20.52 5.685 24.541 14.42l5.685-3.328c-4.991-10.815-16.638-17.748-30.226-17.748-20.937 0-36.467 15.668-36.467 36.189s15.53 36.189 36.467 36.189zm45.97-1.525h6.933V248h-6.933v101.218zm89.308-69.327v15.668c-5.824-10.4-16.5-17.194-29.811-17.194-19.689 0-35.912 15.668-35.912 36.189s16.223 36.189 35.912 36.189c13.311 0 23.987-6.794 29.811-17.193v15.668h7.071v-69.327h-7.071zm-29.256 64.197c-16.5 0-29.395-13.034-29.395-29.534s12.895-29.533 29.395-29.533 29.256 13.033 29.256 29.533-12.756 29.534-29.256 29.534zm62.329-46.034c0-8.319 7.626-13.033 16.639-13.033 7.626 0 14.836 3.328 17.748 10.538l5.823-3.328c-3.744-8.458-12.34-13.866-23.571-13.866-14.143 0-23.572 8.736-23.572 19.689 0 24.958 42.013 14.143 42.013 33 0 8.735-8.181 13.034-17.887 13.034-10.399 0-17.886-4.715-20.382-12.202l-5.962 3.466c3.328 8.874 12.479 15.391 26.344 15.391 14.836 0 24.82-8.319 24.82-19.689 0-25.374-42.013-14.42-42.013-33zm59.308 0c0-8.319 7.626-13.033 16.638-13.033 7.626 0 14.836 3.328 17.748 10.538l5.823-3.328c-3.743-8.458-12.34-13.866-23.571-13.866-14.143 0-23.571 8.736-23.571 19.689 0 24.958 42.012 14.143 42.012 33 0 8.735-8.18 13.034-17.886 13.034-10.399 0-17.887-4.715-20.382-12.202l-5.963 3.466c3.328 8.874 12.479 15.391 26.345 15.391 14.836 0 24.819-8.319 24.819-19.689 0-25.374-42.012-14.42-42.012-33z" fill="#1D1D1D"/></svg>