<svg width="302" height="356" fill="none" xmlns="http://www.w3.org/2000/svg"><g filter="url(#filter0_ddddii_208_153)"><path fill-rule="evenodd" clip-rule="evenodd" d="M136.268 339.796c52.972 10.832 54.601-29.559 82.536-75.84 24.339-40.323 78.692-54.758 66.593-100.274C274.066 121.052 243.93 32.2 202.93 15.906 163.449.215 125.358 47.332 88.678 68.766c-31.375 18.335-68.335 21.85-74.781 57.606-6.244 34.634 19.002 107.052 36.508 137.584 25.46 44.405 57.791 70.099 85.863 75.84z" fill="url(#paint0_linear_208_153)"/></g><path fill-rule="evenodd" clip-rule="evenodd" d="M114.841 134.404c.865-4.559 4.728-8.442 9.162-9.207.695-.119 9.819-.193 20.276-.164 17.014.049 19.244.016 21.095.837.375.167.735.368 1.199.613 1.504.792 3.761 3.051 4.503 4.506 1.185 2.32 1.32 3.28 1.324 9.317l.002 5.194h31.91a8.19 8.19 0 018.19 8.19v76.434a8.191 8.191 0 01-7.063 8.112l-.16.077H84.599l-.166-.078a8.19 8.19 0 01-7.056-8.111V153.69a8.19 8.19 0 018.19-8.19h29.004v-4.564c0-2.811.121-5.751.27-6.532zm50.981 11.096h-44.686l.082-4.93c.099-5.884.197-6.348 1.618-7.675 1.426-1.332 1.606-1.342 21.179-1.287l18.221.052 1.061.608c.584.335 1.355 1.039 1.716 1.564.64.933.658 1.087.736 6.586l.073 5.082z" fill="#25468B"/><g filter="url(#filter1_bd_208_153)"><path d="M182.133 145.5h22.179a8.19 8.19 0 018.19 8.19v76.434a8.19 8.19 0 01-8.19 8.189H85.566a8.189 8.189 0 01-8.189-8.189v-7.848L182.133 145.5z" fill="#5881D9" fill-opacity=".5" shape-rendering="crispEdges"/></g><rect x="121.054" y="168.703" width="47.586" height="9.112" rx="4.556" fill="#fff"/><defs><filter id="filter0_ddddii_208_153" x=".563" y=".403" width="300.991" height="355.592" filterUnits="userSpaceOnUse" color-interpolation-filters="sRGB"><feFlood flood-opacity="0" result="BackgroundImageFix"/><feColorMatrix in="SourceAlpha" values="0 0 0 0 0 0 0 0 0 0 0 0 0 0 0 0 0 0 127 0" result="hardAlpha"/><feOffset dx="4.121" dy="4.121"/><feGaussianBlur stdDeviation="5.151"/><feColorMatrix values="0 0 0 0 0.384314 0 0 0 0 0.384314 0 0 0 0 0.384314 0 0 0 0.9 0"/><feBlend in2="BackgroundImageFix" result="effect1_dropShadow_208_153"/><feColorMatrix in="SourceAlpha" values="0 0 0 0 0 0 0 0 0 0 0 0 0 0 0 0 0 0 127 0" result="hardAlpha"/><feOffset dx="-4.121" dy="-4.121"/><feGaussianBlur stdDeviation="4.121"/><feColorMatrix values="0 0 0 0 1 0 0 0 0 1 0 0 0 0 1 0 0 0 0.9 0"/><feBlend in2="effect1_dropShadow_208_153" result="effect2_dropShadow_208_153"/><feColorMatrix in="SourceAlpha" values="0 0 0 0 0 0 0 0 0 0 0 0 0 0 0 0 0 0 127 0" result="hardAlpha"/><feOffset dx="4.121" dy="-4.121"/><feGaussianBlur stdDeviation="4.121"/><feColorMatrix values="0 0 0 0 0.384314 0 0 0 0 0.384314 0 0 0 0 0.384314 0 0 0 0.2 0"/><feBlend in2="effect2_dropShadow_208_153" result="effect3_dropShadow_208_153"/><feColorMatrix in="SourceAlpha" values="0 0 0 0 0 0 0 0 0 0 0 0 0 0 0 0 0 0 127 0" result="hardAlpha"/><feOffset dx="-4.121" dy="4.121"/><feGaussianBlur stdDeviation="4.121"/><feColorMatrix values="0 0 0 0 0.384314 0 0 0 0 0.384314 0 0 0 0 0.384314 0 0 0 0.2 0"/><feBlend in2="effect3_dropShadow_208_153" result="effect4_dropShadow_208_153"/><feBlend in="SourceGraphic" in2="effect4_dropShadow_208_153" result="shape"/><feColorMatrix in="SourceAlpha" values="0 0 0 0 0 0 0 0 0 0 0 0 0 0 0 0 0 0 127 0" result="hardAlpha"/><feOffset dx="-.412" dy="-.412"/><feGaussianBlur stdDeviation=".412"/><feComposite in2="hardAlpha" operator="arithmetic" k2="-1" k3="1"/><feColorMatrix values="0 0 0 0 0.384314 0 0 0 0 0.384314 0 0 0 0 0.384314 0 0 0 0.5 0"/><feBlend in2="shape" result="effect5_innerShadow_208_153"/><feColorMatrix in="SourceAlpha" values="0 0 0 0 0 0 0 0 0 0 0 0 0 0 0 0 0 0 127 0" result="hardAlpha"/><feOffset dx=".412" dy=".412"/><feGaussianBlur stdDeviation=".412"/><feComposite in2="hardAlpha" operator="arithmetic" k2="-1" k3="1"/><feColorMatrix values="0 0 0 0 1 0 0 0 0 1 0 0 0 0 1 0 0 0 0.3 0"/><feBlend in2="effect5_innerShadow_208_153" result="effect6_innerShadow_208_153"/></filter><filter id="filter1_bd_208_153" x="63.728" y="131.851" width="162.423" height="120.111" filterUnits="userSpaceOnUse" color-interpolation-filters="sRGB"><feFlood flood-opacity="0" result="BackgroundImageFix"/><feGaussianBlur in="BackgroundImageFix" stdDeviation="6.824"/><feComposite in2="SourceAlpha" operator="in" result="effect1_backgroundBlur_208_153"/><feColorMatrix in="SourceAlpha" values="0 0 0 0 0 0 0 0 0 0 0 0 0 0 0 0 0 0 127 0" result="hardAlpha"/><feOffset dy="2.73"/><feGaussianBlur stdDeviation="1.365"/><feComposite in2="hardAlpha" operator="out"/><feColorMatrix values="0 0 0 0 0 0 0 0 0 0 0 0 0 0 0 0 0 0 0.25 0"/><feBlend in2="effect1_backgroundBlur_208_153" result="effect2_dropShadow_208_153"/><feBlend in="SourceGraphic" in2="effect2_dropShadow_208_153" result="shape"/></filter><linearGradient id="paint0_linear_208_153" x1="13.128" y1="341.414" x2="335.832" y2="79.171" gradientUnits="userSpaceOnUse"><stop stop-color="#fff"/><stop offset="1" stop-color="#EDEDED"/></linearGradient></defs></svg>