<svg width="296" height="358" fill="none" xmlns="http://www.w3.org/2000/svg"><g filter="url(#filter0_ddddii_202_2557)"><path fill-rule="evenodd" clip-rule="evenodd" d="M136.398 14.618C189.37 3.786 239.727 49.185 267.662 95.466c24.339 40.322 10.688 88.767-1.41 134.283-11.331 42.63-22.192 92.465-63.192 108.759-39.481 15.691-78.379-16.482-115.059-37.917-31.374-18.335-67.528-36.793-73.974-72.549-6.244-34.634 27.19-59.319 44.697-89.851 25.46-44.405 27.517-113.316 77.674-123.573z" fill="url(#paint0_linear_202_2557)"/></g><g filter="url(#filter1_d_202_2557)"><path d="M144.928 120.971c1.007-2.04 3.916-2.04 4.923 0l18.548 37.582a2.74 2.74 0 002.066 1.501l41.474 6.027c2.252.327 3.151 3.094 1.521 4.682l-30.01 29.253a2.748 2.748 0 00-.79 2.43l7.085 41.306c.384 2.242-1.969 3.952-3.983 2.894l-37.095-19.502a2.742 2.742 0 00-2.555 0l-37.095 19.502c-2.014 1.058-4.368-.652-3.983-2.894l7.085-41.306a2.748 2.748 0 00-.79-2.43l-30.01-29.253c-1.63-1.588-.73-4.355 1.52-4.682l41.474-6.027a2.742 2.742 0 002.067-1.501l18.548-37.582z" fill="#25468B"/></g><rect x="156.399" y="184.46" width="16.074" height="9.951" rx="4.975" fill="#fff"/><g filter="url(#filter2_bd_202_2557)"><path d="M106.214 246.457l63.313-86.753a2.752 2.752 0 01-1.069-1.151l-18.548-37.582c-1.006-2.04-3.916-2.04-4.923 0l-18.547 37.582a2.743 2.743 0 01-2.067 1.501l-41.474 6.027c-2.251.327-3.15 3.094-1.521 4.682l30.011 29.253c.647.631.942 1.539.789 2.43l-7.085 41.306a2.715 2.715 0 001.121 2.705z" fill="#5881D9" fill-opacity=".5" shape-rendering="crispEdges"/></g><rect x="152.219" y="163.028" width="53.373" height="10.22" rx="5.11" transform="rotate(90 152.219 163.028)" fill="#fff"/><rect x="121.954" y="184.46" width="16.074" height="9.951" rx="4.975" fill="#fff"/><defs><filter id="filter0_ddddii_202_2557" x=".898" y=".637" width="294.693" height="356.459" filterUnits="userSpaceOnUse" color-interpolation-filters="sRGB"><feFlood flood-opacity="0" result="BackgroundImageFix"/><feColorMatrix in="SourceAlpha" values="0 0 0 0 0 0 0 0 0 0 0 0 0 0 0 0 0 0 127 0" result="hardAlpha"/><feOffset dx="4.121" dy="4.121"/><feGaussianBlur stdDeviation="5.151"/><feColorMatrix values="0 0 0 0 0.384314 0 0 0 0 0.384314 0 0 0 0 0.384314 0 0 0 0.9 0"/><feBlend in2="BackgroundImageFix" result="effect1_dropShadow_202_2557"/><feColorMatrix in="SourceAlpha" values="0 0 0 0 0 0 0 0 0 0 0 0 0 0 0 0 0 0 127 0" result="hardAlpha"/><feOffset dx="-4.121" dy="-4.121"/><feGaussianBlur stdDeviation="4.121"/><feColorMatrix values="0 0 0 0 1 0 0 0 0 1 0 0 0 0 1 0 0 0 0.9 0"/><feBlend in2="effect1_dropShadow_202_2557" result="effect2_dropShadow_202_2557"/><feColorMatrix in="SourceAlpha" values="0 0 0 0 0 0 0 0 0 0 0 0 0 0 0 0 0 0 127 0" result="hardAlpha"/><feOffset dx="4.121" dy="-4.121"/><feGaussianBlur stdDeviation="4.121"/><feColorMatrix values="0 0 0 0 0.384314 0 0 0 0 0.384314 0 0 0 0 0.384314 0 0 0 0.2 0"/><feBlend in2="effect2_dropShadow_202_2557" result="effect3_dropShadow_202_2557"/><feColorMatrix in="SourceAlpha" values="0 0 0 0 0 0 0 0 0 0 0 0 0 0 0 0 0 0 127 0" result="hardAlpha"/><feOffset dx="-4.121" dy="4.121"/><feGaussianBlur stdDeviation="4.121"/><feColorMatrix values="0 0 0 0 0.384314 0 0 0 0 0.384314 0 0 0 0 0.384314 0 0 0 0.2 0"/><feBlend in2="effect3_dropShadow_202_2557" result="effect4_dropShadow_202_2557"/><feBlend in="SourceGraphic" in2="effect4_dropShadow_202_2557" result="shape"/><feColorMatrix in="SourceAlpha" values="0 0 0 0 0 0 0 0 0 0 0 0 0 0 0 0 0 0 127 0" result="hardAlpha"/><feOffset dx="-.412" dy="-.412"/><feGaussianBlur stdDeviation=".412"/><feComposite in2="hardAlpha" operator="arithmetic" k2="-1" k3="1"/><feColorMatrix values="0 0 0 0 0.384314 0 0 0 0 0.384314 0 0 0 0 0.384314 0 0 0 0.5 0"/><feBlend in2="shape" result="effect5_innerShadow_202_2557"/><feColorMatrix in="SourceAlpha" values="0 0 0 0 0 0 0 0 0 0 0 0 0 0 0 0 0 0 127 0" result="hardAlpha"/><feOffset dx=".412" dy=".412"/><feGaussianBlur stdDeviation=".412"/><feComposite in2="hardAlpha" operator="arithmetic" k2="-1" k3="1"/><feColorMatrix values="0 0 0 0 1 0 0 0 0 1 0 0 0 0 1 0 0 0 0.3 0"/><feBlend in2="effect5_innerShadow_202_2557" result="effect6_innerShadow_202_2557"/></filter><filter id="filter1_d_202_2557" x="76.826" y="119.441" width="141.126" height="134.846" filterUnits="userSpaceOnUse" color-interpolation-filters="sRGB"><feFlood flood-opacity="0" result="BackgroundImageFix"/><feColorMatrix in="SourceAlpha" values="0 0 0 0 0 0 0 0 0 0 0 0 0 0 0 0 0 0 127 0" result="hardAlpha"/><feOffset dy="3.66"/><feGaussianBlur stdDeviation="1.83"/><feComposite in2="hardAlpha" operator="out"/><feColorMatrix values="0 0 0 0 0 0 0 0 0 0 0 0 0 0 0 0 0 0 0.25 0"/><feBlend in2="BackgroundImageFix" result="effect1_dropShadow_202_2557"/><feBlend in="SourceGraphic" in2="effect1_dropShadow_202_2557" result="shape"/></filter><filter id="filter2_bd_202_2557" x="62.245" y="101.141" width="125.582" height="163.617" filterUnits="userSpaceOnUse" color-interpolation-filters="sRGB"><feFlood flood-opacity="0" result="BackgroundImageFix"/><feGaussianBlur in="BackgroundImageFix" stdDeviation="9.15"/><feComposite in2="SourceAlpha" operator="in" result="effect1_backgroundBlur_202_2557"/><feColorMatrix in="SourceAlpha" values="0 0 0 0 0 0 0 0 0 0 0 0 0 0 0 0 0 0 127 0" result="hardAlpha"/><feOffset dy="3.66"/><feGaussianBlur stdDeviation="1.83"/><feComposite in2="hardAlpha" operator="out"/><feColorMatrix values="0 0 0 0 0 0 0 0 0 0 0 0 0 0 0 0 0 0 0.25 0"/><feBlend in2="effect1_backgroundBlur_202_2557" result="effect2_dropShadow_202_2557"/><feBlend in="SourceGraphic" in2="effect2_dropShadow_202_2557" result="shape"/></filter><linearGradient id="paint0_linear_202_2557" x1="13.26" y1="13" x2="335.964" y2="275.243" gradientUnits="userSpaceOnUse"><stop stop-color="#fff"/><stop offset="1" stop-color="#EDEDED"/></linearGradient></defs></svg>